<?xml version="1.0" encoding="utf-8"?>
<!-- Generator: Adobe Illustrator 24.2.3, SVG Export Plug-In . SVG Version: 6.00 Build 0)  -->
<svg version="1.1" id="Layer_1" xmlns="http://www.w3.org/2000/svg" xmlns:xlink="http://www.w3.org/1999/xlink" x="0px" y="0px"
	 viewBox="0 0 864 720" style="enable-background:new 0 0 864 720;" xml:space="preserve">
<style type="text/css">
	.st0{fill-rule:evenodd;clip-rule:evenodd;fill:url(#SVGID_1_);}
	.st1{fill-rule:evenodd;clip-rule:evenodd;fill:url(#SVGID_2_);}
	.st2{fill-rule:evenodd;clip-rule:evenodd;fill:url(#SVGID_3_);}
	.st3{fill-rule:evenodd;clip-rule:evenodd;fill:url(#SVGID_4_);}
	.st4{fill-rule:evenodd;clip-rule:evenodd;fill:url(#SVGID_5_);}
	.st5{fill-rule:evenodd;clip-rule:evenodd;fill:url(#SVGID_6_);}
	.st6{fill-rule:evenodd;clip-rule:evenodd;fill:url(#SVGID_7_);}
	.st7{fill-rule:evenodd;clip-rule:evenodd;fill:url(#SVGID_8_);}
	.st8{fill-rule:evenodd;clip-rule:evenodd;fill:url(#SVGID_9_);}
	.st9{fill-rule:evenodd;clip-rule:evenodd;fill:url(#SVGID_10_);}
	.st10{fill-rule:evenodd;clip-rule:evenodd;fill:url(#SVGID_11_);}
	.st11{fill-rule:evenodd;clip-rule:evenodd;fill:url(#SVGID_12_);}
	.st12{fill-rule:evenodd;clip-rule:evenodd;fill:url(#SVGID_13_);}
	.st13{fill-rule:evenodd;clip-rule:evenodd;fill:#005C92;}
	.st14{fill-rule:evenodd;clip-rule:evenodd;fill:url(#SVGID_14_);}
	.st15{fill-rule:evenodd;clip-rule:evenodd;fill:url(#SVGID_15_);}
	.st16{fill-rule:evenodd;clip-rule:evenodd;fill:url(#SVGID_16_);}
	.st17{fill-rule:evenodd;clip-rule:evenodd;fill:url(#SVGID_17_);}
	.st18{fill-rule:evenodd;clip-rule:evenodd;fill:url(#SVGID_18_);}
	.st19{fill-rule:evenodd;clip-rule:evenodd;fill:url(#SVGID_19_);}
	.st20{fill-rule:evenodd;clip-rule:evenodd;fill:url(#SVGID_20_);}
	.st21{fill-rule:evenodd;clip-rule:evenodd;fill:url(#SVGID_21_);}
	.st22{fill-rule:evenodd;clip-rule:evenodd;fill:url(#SVGID_22_);}
	.st23{fill-rule:evenodd;clip-rule:evenodd;fill:url(#SVGID_23_);}
	.st24{fill-rule:evenodd;clip-rule:evenodd;fill:url(#SVGID_24_);}
	.st25{fill-rule:evenodd;clip-rule:evenodd;fill:url(#SVGID_25_);}
	.st26{fill-rule:evenodd;clip-rule:evenodd;fill:url(#SVGID_26_);}
	.st27{fill-rule:evenodd;clip-rule:evenodd;fill:url(#SVGID_27_);}
	.st28{fill-rule:evenodd;clip-rule:evenodd;fill:url(#SVGID_28_);}
	.st29{fill-rule:evenodd;clip-rule:evenodd;fill:url(#SVGID_29_);}
	.st30{fill-rule:evenodd;clip-rule:evenodd;fill:url(#SVGID_30_);}
	.st31{fill-rule:evenodd;clip-rule:evenodd;fill:url(#SVGID_31_);}
	.st32{fill-rule:evenodd;clip-rule:evenodd;fill:url(#SVGID_32_);}
	.st33{fill-rule:evenodd;clip-rule:evenodd;fill:#29793C;}
	.st34{fill-rule:evenodd;clip-rule:evenodd;fill:url(#SVGID_33_);}
	.st35{fill-rule:evenodd;clip-rule:evenodd;fill:url(#SVGID_34_);}
	.st36{fill-rule:evenodd;clip-rule:evenodd;fill:#C66F28;}
	.st37{fill-rule:evenodd;clip-rule:evenodd;fill:#005B30;}
	.st38{fill-rule:evenodd;clip-rule:evenodd;fill:#4D652E;}
	.st39{fill-rule:evenodd;clip-rule:evenodd;fill:url(#SVGID_35_);}
	.st40{fill-rule:evenodd;clip-rule:evenodd;fill:url(#SVGID_36_);}
	.st41{fill-rule:evenodd;clip-rule:evenodd;fill:url(#SVGID_37_);}
	.st42{fill-rule:evenodd;clip-rule:evenodd;fill:url(#SVGID_38_);}
	.st43{fill-rule:evenodd;clip-rule:evenodd;fill:url(#SVGID_39_);}
	.st44{fill-rule:evenodd;clip-rule:evenodd;fill:url(#SVGID_40_);}
	.st45{fill-rule:evenodd;clip-rule:evenodd;fill:url(#SVGID_41_);}
	.st46{fill-rule:evenodd;clip-rule:evenodd;fill:#5A85B2;}
	.st47{fill-rule:evenodd;clip-rule:evenodd;fill:url(#SVGID_42_);}
	.st48{fill-rule:evenodd;clip-rule:evenodd;fill:url(#SVGID_43_);}
	.st49{fill-rule:evenodd;clip-rule:evenodd;fill:url(#SVGID_44_);}
	.st50{fill-rule:evenodd;clip-rule:evenodd;fill:url(#SVGID_45_);}
	.st51{fill-rule:evenodd;clip-rule:evenodd;fill:url(#SVGID_46_);}
	.st52{fill-rule:evenodd;clip-rule:evenodd;fill:url(#SVGID_47_);}
	.st53{fill-rule:evenodd;clip-rule:evenodd;fill:url(#SVGID_48_);}
	.st54{fill-rule:evenodd;clip-rule:evenodd;fill:url(#SVGID_49_);}
	.st55{fill-rule:evenodd;clip-rule:evenodd;fill:url(#SVGID_50_);}
	.st56{fill-rule:evenodd;clip-rule:evenodd;fill:url(#SVGID_51_);}
	.st57{fill-rule:evenodd;clip-rule:evenodd;fill:url(#SVGID_52_);}
	.st58{fill-rule:evenodd;clip-rule:evenodd;fill:url(#SVGID_53_);}
	.st59{fill-rule:evenodd;clip-rule:evenodd;fill:url(#SVGID_54_);}
	.st60{fill-rule:evenodd;clip-rule:evenodd;fill:url(#SVGID_55_);}
	.st61{fill-rule:evenodd;clip-rule:evenodd;fill:#C46D28;}
	.st62{fill-rule:evenodd;clip-rule:evenodd;fill:url(#SVGID_56_);}
</style>
<linearGradient id="SVGID_1_" gradientUnits="userSpaceOnUse" x1="559.3192" y1="227.537" x2="345.3746" y2="448.5227">
	<stop  offset="0" style="stop-color:#BD2025"/>
	<stop  offset="0.36" style="stop-color:#CC2727"/>
	<stop  offset="1" style="stop-color:#C72127"/>
</linearGradient>
<polygon class="st0" points="524.72,140.07 655.19,140.07 655.19,259.43 653.18,266.97 362.11,557.28 334.69,580.44 208.7,580.44 
	208.7,453.32 236.45,425.96 498.13,163.86 "/>
<radialGradient id="SVGID_2_" cx="263.5786" cy="536.9272" r="121.7352" gradientTransform="matrix(0.5152 -0.8571 0.8077 0.4855 -305.8938 502.1266)" gradientUnits="userSpaceOnUse">
	<stop  offset="0" style="stop-color:#ED6D23"/>
	<stop  offset="1" style="stop-color:#C72127"/>
</radialGradient>
<path class="st1" d="M395.55,523.94l-33.43,33.35l-27.42,23.16h-97.19c-11.93-8.94-21.81-20.48-28.8-33.77v-93.35l27.74-27.35
	l15.88-15.9c13.66-6.93,29.12-10.85,45.49-10.85c55.58,0,100.64,45.06,100.64,100.64C398.45,508.16,397.44,516.22,395.55,523.94z"/>
<radialGradient id="SVGID_3_" cx="614.0343" cy="188.6321" r="107.7083" gradientTransform="matrix(0.9716 -0.2365 0.2346 0.9635 -26.8194 152.1428)" gradientUnits="userSpaceOnUse">
	<stop  offset="0" style="stop-color:#ED6D23"/>
	<stop  offset="1" style="stop-color:#C52026"/>
</radialGradient>
<path class="st2" d="M524.72,140.07h130.48v119.36l-2.02,7.53l-27.87,27.8c-8.39,2.27-17.22,3.49-26.33,3.49
	c-55.58,0-100.64-45.06-100.64-100.64c0-15.08,3.32-29.37,9.26-42.21L524.72,140.07z"/>
<radialGradient id="SVGID_4_" cx="473.2038" cy="427.5114" r="81.2157" gradientTransform="matrix(0.9645 -0.2639 0.2638 0.964 -95.9855 140.2971)" gradientUnits="userSpaceOnUse">
	<stop  offset="0" style="stop-color:#ED6D23"/>
	<stop  offset="1" style="stop-color:#CC2427"/>
</radialGradient>
<path class="st3" d="M553.22,366.67L415.73,503.8c-30.26-17.36-50.65-49.98-50.65-87.36c0-55.58,45.06-100.64,100.64-100.64
	C503.2,315.8,535.89,336.29,553.22,366.67z"/>
<linearGradient id="SVGID_5_" gradientUnits="userSpaceOnUse" x1="237.381" y1="426.8718" x2="498.4795" y2="164.1441">
	<stop  offset="0" style="stop-color:#F07544"/>
	<stop  offset="0.08" style="stop-color:#EB5324"/>
	<stop  offset="1" style="stop-color:#F36E29"/>
</linearGradient>
<polygon class="st4" points="236.14,426.26 236.76,426.87 236.74,429.07 520.48,143.86 498.13,163.86 443.72,218.36 "/>
<linearGradient id="SVGID_6_" gradientUnits="userSpaceOnUse" x1="129.0184" y1="437.7263" x2="151.6573" y2="298.5262">
	<stop  offset="0" style="stop-color:#0B713A"/>
	<stop  offset="0.73" style="stop-color:#77AC43"/>
	<stop  offset="1" style="stop-color:#5A9742"/>
</linearGradient>
<polygon class="st5" points="237.2,139.21 208.71,165 72,301.48 72,428.45 98.08,404.59 209.68,291.95 210.22,292.58 235.92,266.9 
	237.2,259.41 "/>
<linearGradient id="SVGID_7_" gradientUnits="userSpaceOnUse" x1="72.1681" y1="364.7069" x2="178.4658" y2="260.1255">
	<stop  offset="0" style="stop-color:#005C30"/>
	<stop  offset="1" style="stop-color:#70A341"/>
</linearGradient>
<polygon class="st6" points="237.2,139.21 208.71,165 97.81,275.72 98.08,404.59 209.68,291.95 210.22,292.58 235.92,266.9 
	237.2,259.41 "/>
<radialGradient id="SVGID_8_" cx="218.8219" cy="184.6464" r="208.8351" gradientTransform="matrix(-0.6498 -0.7601 0.7293 -0.6234 226.3568 466.0861)" gradientUnits="userSpaceOnUse">
	<stop  offset="0" style="stop-color:#649864"/>
	<stop  offset="0.48" style="stop-color:#06763C"/>
	<stop  offset="0.78" style="stop-color:#00703A"/>
	<stop  offset="1" style="stop-color:#649864"/>
</radialGradient>
<polygon class="st7" points="237.2,144.51 108.53,272.5 108.53,388.63 237.2,259.41 "/>
<linearGradient id="SVGID_9_" gradientUnits="userSpaceOnUse" x1="103.1663" y1="392.4498" x2="103.1673" y2="274.616">
	<stop  offset="0" style="stop-color:#56A044"/>
	<stop  offset="0.4" style="stop-color:#62A644"/>
	<stop  offset="1" style="stop-color:#9AB573"/>
</linearGradient>
<polygon class="st8" points="97.81,275.72 108.53,272.5 108.53,388.63 98.08,404.59 "/>
<linearGradient id="SVGID_10_" gradientUnits="userSpaceOnUse" x1="143.2684" y1="426.009" x2="246.601" y2="526.32">
	<stop  offset="0" style="stop-color:#0565A5"/>
	<stop  offset="0.31" style="stop-color:#00619C"/>
	<stop  offset="0.63" style="stop-color:#074D81"/>
	<stop  offset="1" style="stop-color:#0E66A0"/>
</linearGradient>
<polygon class="st9" points="72,428.45 72,443.56 208.7,580.44 235.74,557.23 236.76,426.87 159.45,350.81 153.04,349.12 
	98.08,404.59 "/>
<linearGradient id="SVGID_11_" gradientUnits="userSpaceOnUse" x1="153.2522" y1="409.6295" x2="264.3294" y2="519.9293">
	<stop  offset="0" style="stop-color:#074D81"/>
	<stop  offset="0.62" style="stop-color:#4E81B5"/>
	<stop  offset="1" style="stop-color:#074D81"/>
</linearGradient>
<polygon class="st10" points="98.08,404.59 98.08,419.69 235.74,557.23 236.76,426.87 159.45,350.81 153.04,349.12 "/>
<radialGradient id="SVGID_12_" cx="108.4042" cy="413.0863" r="185.7098" gradientTransform="matrix(-0.547 -0.8372 0.5696 -0.3721 -67.5999 657.5673)" gradientUnits="userSpaceOnUse">
	<stop  offset="0" style="stop-color:#4880B3"/>
	<stop  offset="0.46" style="stop-color:#1C649A"/>
	<stop  offset="0.68" style="stop-color:#00619B"/>
	<stop  offset="1" style="stop-color:#4880B3"/>
</radialGradient>
<polygon class="st11" points="108.4,401.63 108.4,413.09 235.87,540.44 236.76,426.87 159.45,350.81 "/>
<linearGradient id="SVGID_13_" gradientUnits="userSpaceOnUse" x1="155.7366" y1="374.2871" x2="212.551" y2="429.9707">
	<stop  offset="0" style="stop-color:#005A8A"/>
	<stop  offset="1" style="stop-color:#35658C"/>
</linearGradient>
<polygon class="st12" points="132.16,377.98 208.7,453.32 236.14,426.26 159.45,350.81 "/>
<polygon class="st13" points="108.4,401.63 98.08,404.59 98.08,419.69 108.4,413.09 "/>
<linearGradient id="SVGID_14_" gradientUnits="userSpaceOnUse" x1="103.1919" y1="403.1569" x2="155.4273" y2="350.7866">
	<stop  offset="0" style="stop-color:#006092"/>
	<stop  offset="0.65" style="stop-color:#5D8CB1"/>
	<stop  offset="1" style="stop-color:#3C79AA"/>
</linearGradient>
<polygon class="st14" points="98.08,404.59 108.4,401.63 159.45,350.81 153.04,349.12 "/>
<linearGradient id="SVGID_15_" gradientUnits="userSpaceOnUse" x1="72.0002" y1="424.0735" x2="98.0759" y2="424.0744">
	<stop  offset="0" style="stop-color:#005C92"/>
	<stop  offset="1" style="stop-color:#005E95"/>
</linearGradient>
<polygon class="st15" points="98.08,419.69 72,443.56 72,428.45 98.08,404.59 "/>
<linearGradient id="SVGID_16_" gradientUnits="userSpaceOnUse" x1="102.8374" y1="273.7897" x2="236.8654" y2="141.5412">
	<stop  offset="0" style="stop-color:#7CB042"/>
	<stop  offset="1" style="stop-color:#A7C37C"/>
</linearGradient>
<polygon class="st16" points="108.53,272.5 237.2,144.51 237.2,139.21 208.71,165 97.81,275.72 "/>
<radialGradient id="SVGID_17_" cx="348.3926" cy="148.7685" r="178.0562" gradientTransform="matrix(0.707 -0.7072 0.7035 0.7034 -2.5906 290.5103)" gradientUnits="userSpaceOnUse">
	<stop  offset="0" style="stop-color:#FEC977"/>
	<stop  offset="0.88" style="stop-color:#FAA21B"/>
	<stop  offset="1" style="stop-color:#FEC977"/>
</radialGradient>
<polygon class="st17" points="237.2,139.21 366.69,139.21 443.3,215.38 444.01,220.43 316.53,348.38 235.92,266.9 237.2,259.41 "/>
<linearGradient id="SVGID_18_" gradientUnits="userSpaceOnUse" x1="320.773" y1="341.116" x2="443.1771" y2="218.5198">
	<stop  offset="0" style="stop-color:#ED6D23"/>
	<stop  offset="1" style="stop-color:#F08621"/>
</linearGradient>
<polygon class="st18" points="316.53,348.38 322.55,336.39 443.3,215.38 444.01,220.43 "/>
<linearGradient id="SVGID_19_" gradientUnits="userSpaceOnUse" x1="346.6185" y1="309.8682" x2="269.9455" y2="232.3732">
	<stop  offset="0" style="stop-color:#FAA21B"/>
	<stop  offset="0.75" style="stop-color:#F17E21"/>
	<stop  offset="1" style="stop-color:#F99F1C"/>
</linearGradient>
<polygon class="st19" points="245.96,139.21 237.2,139.21 237.2,259.41 235.92,266.9 316.53,348.38 322.55,336.39 245.96,258.99 "/>
<linearGradient id="SVGID_20_" gradientUnits="userSpaceOnUse" x1="243.9471" y1="319.7357" x2="237.1112" y2="319.7357">
	<stop  offset="0" style="stop-color:#F08122"/>
	<stop  offset="1" style="stop-color:#A24122"/>
</linearGradient>
<polygon class="st20" points="235.92,266.9 210.22,292.58 289.76,372.57 315.22,347.06 "/>
<linearGradient id="SVGID_21_" gradientUnits="userSpaceOnUse" x1="237.2797" y1="152.0204" x2="339.8614" y2="152.0193">
	<stop  offset="0" style="stop-color:#FCB336"/>
	<stop  offset="1" style="stop-color:#FDBC52"/>
</linearGradient>
<polygon class="st21" points="208.48,165 335.18,165 366.69,139.21 237.2,139.21 "/>
<radialGradient id="SVGID_22_" cx="228.7289" cy="555.3257" r="27.894" gradientTransform="matrix(1 -3.577925e-04 3.443037e-04 0.9623 -0.1912 21.0177)" gradientUnits="userSpaceOnUse">
	<stop  offset="0" style="stop-color:#3D4775"/>
	<stop  offset="1" style="stop-color:#124473"/>
</radialGradient>
<polygon class="st22" points="208.7,580.44 235.74,557.23 208.7,530.21 "/>
<linearGradient id="SVGID_23_" gradientUnits="userSpaceOnUse" x1="214.6143" y1="513.7064" x2="220.8216" y2="507.4928">
	<stop  offset="0" style="stop-color:#005288"/>
	<stop  offset="1" style="stop-color:#195D8B"/>
</linearGradient>
<polygon class="st23" points="235.74,557.23 236.76,426.87 235.87,540.44 208.7,513.3 208.7,530.21 "/>
<radialGradient id="SVGID_24_" cx="247.9567" cy="483.3509" r="45.1808" gradientTransform="matrix(1.675516e-04 -1 0.9111 1.526563e-04 -192.4658 731.2338)" gradientUnits="userSpaceOnUse">
	<stop  offset="0" style="stop-color:#915349"/>
	<stop  offset="1" style="stop-color:#1B3152"/>
</radialGradient>
<polygon class="st24" points="236.76,426.87 236.14,426.26 208.7,453.32 208.7,513.3 235.87,540.44 "/>
<linearGradient id="SVGID_25_" gradientUnits="userSpaceOnUse" x1="237.6333" y1="429.9968" x2="513.3109" y2="156.0756">
	<stop  offset="0" style="stop-color:#F36E29"/>
	<stop  offset="0.22" style="stop-color:#F68638"/>
	<stop  offset="0.36" style="stop-color:#FCCBAA"/>
	<stop  offset="0.5" style="stop-color:#F07544"/>
	<stop  offset="0.82" style="stop-color:#E85E25"/>
	<stop  offset="1" style="stop-color:#F8A379"/>
</linearGradient>
<polygon class="st25" points="524.72,140.07 531.48,140.07 245.97,426.8 236.74,429.57 236.74,429.07 520.48,143.86 "/>
<linearGradient id="SVGID_26_" gradientUnits="userSpaceOnUse" x1="638.8956" y1="273.6176" x2="638.8961" y2="152.2262">
	<stop  offset="0" style="stop-color:#A42822"/>
	<stop  offset="0.63" style="stop-color:#E06625"/>
	<stop  offset="1" style="stop-color:#9D3220"/>
</linearGradient>
<polygon class="st26" points="653.32,140.07 624.48,164.38 624.48,295.7 653.18,266.97 653.18,261.17 "/>
<linearGradient id="SVGID_27_" gradientUnits="userSpaceOnUse" x1="523.5132" y1="152.1529" x2="642.4555" y2="152.1518">
	<stop  offset="0" style="stop-color:#BC2026"/>
	<stop  offset="0.54" style="stop-color:#E06625"/>
	<stop  offset="1" style="stop-color:#D54727"/>
</linearGradient>
<polygon class="st27" points="653.32,140.07 624.48,164.38 507.39,164.26 531.48,140.07 "/>
<linearGradient id="SVGID_28_" gradientUnits="userSpaceOnUse" x1="641.5684" y1="276.9095" x2="363.5002" y2="551.91">
	<stop  offset="0" style="stop-color:#BD4226"/>
	<stop  offset="0.23" style="stop-color:#F6891F"/>
	<stop  offset="0.52" style="stop-color:#CD3727"/>
	<stop  offset="1" style="stop-color:#EA7024"/>
</linearGradient>
<polygon class="st28" points="655.19,259.43 366.54,548.16 362.11,557.28 653.18,266.97 "/>
<linearGradient id="SVGID_29_" gradientUnits="userSpaceOnUse" x1="240.8575" y1="433.9999" x2="240.8585" y2="546.1266">
	<stop  offset="0" style="stop-color:#E65E25"/>
	<stop  offset="1" style="stop-color:#EE7628"/>
</linearGradient>
<polygon class="st29" points="245.97,426.8 236.74,429.57 235.74,557.23 245.97,547.83 "/>
<linearGradient id="SVGID_30_" gradientUnits="userSpaceOnUse" x1="240.9301" y1="552.4843" x2="364.3978" y2="552.4832">
	<stop  offset="0" style="stop-color:#D63F27"/>
	<stop  offset="1" style="stop-color:#EE883A"/>
</linearGradient>
<polygon class="st30" points="366.54,548.16 362.11,557.28 235.74,557.23 245.97,547.83 "/>
<radialGradient id="SVGID_31_" cx="274.2711" cy="561.1582" r="84.5024" gradientTransform="matrix(1 -3.490658e-05 2.252522e-05 0.6453 -0.0126 199.0524)" gradientUnits="userSpaceOnUse">
	<stop  offset="0" style="stop-color:#EF6922"/>
	<stop  offset="1" style="stop-color:#C22426"/>
</radialGradient>
<polygon class="st31" points="334.69,580.44 362.11,557.28 235.74,557.23 208.7,580.44 "/>
<g>
	<linearGradient id="SVGID_32_" gradientUnits="userSpaceOnUse" x1="240.9401" y1="165.0038" x2="240.9401" y2="248.7078">
		<stop  offset="0" style="stop-color:#C66F28"/>
		<stop  offset="1" style="stop-color:#F58220"/>
	</linearGradient>
	<polygon class="st32" points="245.96,258.99 235.92,266.9 237.2,259.41 237.2,139.21 245.96,139.21 	"/>
	<polygon class="st33" points="237.2,139.21 237.2,259.41 235.92,266.9 210.22,292.58 209.68,291.95 209.23,292.4 208.48,291.38 
		208.48,165.22 208.71,165 	"/>
	
		<radialGradient id="SVGID_33_" cx="237.1958" cy="191.9165" r="47.456" gradientTransform="matrix(-1.483530e-04 -1 0.7518 -1.115318e-04 92.9482 429.1337)" gradientUnits="userSpaceOnUse">
		<stop  offset="0" style="stop-color:#647734"/>
		<stop  offset="1" style="stop-color:#005B30"/>
	</radialGradient>
	<polygon class="st34" points="237.2,144.51 237.2,259.41 208.48,288.25 208.48,173.08 	"/>
	<linearGradient id="SVGID_34_" gradientUnits="userSpaceOnUse" x1="210.3264" y1="167.4359" x2="236.7326" y2="143.6026">
		<stop  offset="0" style="stop-color:#4D652E"/>
		<stop  offset="1" style="stop-color:#417A3A"/>
	</linearGradient>
	<polygon class="st35" points="237.2,139.21 237.2,144.51 208.48,173.08 208.48,165.22 208.71,165 	"/>
</g>
<rect x="237.2" y="139.21" class="st36" width="8.77" height="25.79"/>
<polygon class="st33" points="237.2,139.21 237.2,165 208.71,165 "/>
<polygon class="st37" points="237.2,144.51 237.2,165 216.6,165 "/>
<polygon class="st38" points="237.2,139.21 237.2,144.51 216.6,165 208.71,165 "/>
<linearGradient id="SVGID_35_" gradientUnits="userSpaceOnUse" x1="727.3835" y1="296.4429" x2="659.3336" y2="234.5366">
	<stop  offset="0" style="stop-color:#1468A7"/>
	<stop  offset="1" style="stop-color:#005991"/>
</linearGradient>
<polygon class="st39" points="655.19,140.07 664.4,145.57 791.66,272.99 791.66,283.96 789.87,292.63 735.26,347.07 706.58,371.1 
	627.03,293.14 653.18,266.97 655.19,259.43 "/>
<linearGradient id="SVGID_36_" gradientUnits="userSpaceOnUse" x1="658.7101" y1="261.4826" x2="658.7112" y2="145.8651">
	<stop  offset="0" style="stop-color:#044870"/>
	<stop  offset="1" style="stop-color:#005E99"/>
</linearGradient>
<polygon class="st40" points="655.19,140.07 664.4,145.57 664.4,259.64 653.02,267.12 655.19,259.43 "/>
<linearGradient id="SVGID_37_" gradientUnits="userSpaceOnUse" x1="713.2568" y1="364.7036" x2="773.5195" y2="307.5534">
	<stop  offset="0" style="stop-color:#104779"/>
	<stop  offset="1" style="stop-color:#014E7E"/>
</linearGradient>
<polygon class="st41" points="735.26,347.07 706.58,371.1 733.15,344.5 741.69,335.36 762.43,314.84 789.87,292.63 "/>
<radialGradient id="SVGID_38_" cx="688.9376" cy="230.6232" r="97.952" gradientTransform="matrix(-0.554 -0.8325 0.3549 -0.2362 988.7838 858.6304)" gradientUnits="userSpaceOnUse">
	<stop  offset="0" style="stop-color:#0F4470"/>
	<stop  offset="1" style="stop-color:#005690"/>
</radialGradient>
<polygon class="st42" points="664.4,205.42 760.78,299.67 791.66,277.84 791.66,272.99 664.4,150.41 "/>
<linearGradient id="SVGID_39_" gradientUnits="userSpaceOnUse" x1="785.551" y1="278.2728" x2="669.3128" y2="143.7448">
	<stop  offset="0" style="stop-color:#004F7E"/>
	<stop  offset="1" style="stop-color:#28649C"/>
</linearGradient>
<polygon class="st43" points="664.4,145.57 791.66,272.99 791.66,277.84 664.4,150.41 "/>
<linearGradient id="SVGID_40_" gradientUnits="userSpaceOnUse" x1="791.6608" y1="296.7934" x2="761.149" y2="296.795">
	<stop  offset="0" style="stop-color:#005A92"/>
	<stop  offset="1" style="stop-color:#005C8B"/>
</linearGradient>
<polygon class="st44" points="760.78,299.67 761.51,315.75 762.43,314.84 789.87,292.63 791.66,283.96 791.66,277.84 "/>
<linearGradient id="SVGID_41_" gradientUnits="userSpaceOnUse" x1="664.1151" y1="268.6406" x2="734.5809" y2="337.1329">
	<stop  offset="0" style="stop-color:#1468A7"/>
	<stop  offset="1" style="stop-color:#7C99C8"/>
</linearGradient>
<polygon class="st45" points="664.4,259.64 741.69,335.36 735.26,347.07 653.02,267.12 "/>
<polygon class="st46" points="741.69,335.36 735.26,347.07 732.89,344.76 733.15,344.5 "/>
<linearGradient id="SVGID_42_" gradientUnits="userSpaceOnUse" x1="643.312" y1="319.0345" x2="664.981" y2="319.0345">
	<stop  offset="0" style="stop-color:#002C4A"/>
	<stop  offset="1" style="stop-color:#005F99"/>
</linearGradient>
<polygon class="st47" points="653.18,266.97 732.89,344.76 706.58,371.1 627.03,293.14 "/>
<radialGradient id="SVGID_43_" cx="674.0596" cy="533.0142" r="173.3333" gradientTransform="matrix(0.7813 -0.6242 0.4919 0.6157 -114.7691 625.5515)" gradientUnits="userSpaceOnUse">
	<stop  offset="0" style="stop-color:#5DA347"/>
	<stop  offset="0.19" style="stop-color:#629D42"/>
	<stop  offset="0.61" style="stop-color:#0B713A"/>
	<stop  offset="1" style="stop-color:#006943"/>
</radialGradient>
<polygon class="st48" points="789.87,292.63 792,298.34 791.86,413.03 790.04,419.87 653.81,556.44 655.16,547.88 655.29,426.37 
	653.7,425.12 706.58,371.1 735.26,347.07 "/>
<linearGradient id="SVGID_44_" gradientUnits="userSpaceOnUse" x1="712.7534" y1="367.3488" x2="656.0021" y2="425.5613">
	<stop  offset="0" style="stop-color:#005D32"/>
	<stop  offset="1" style="stop-color:#036A37"/>
</linearGradient>
<polygon class="st49" points="725.9,354.91 735.26,347.07 655.29,428.44 655.29,426.37 653.7,425.12 706.58,371.1 "/>
<linearGradient id="SVGID_45_" gradientUnits="userSpaceOnUse" x1="663.0991" y1="423.6918" x2="780.2676" y2="305.9859">
	<stop  offset="0" style="stop-color:#408740"/>
	<stop  offset="0.54" style="stop-color:#88B247"/>
	<stop  offset="1" style="stop-color:#579241"/>
</linearGradient>
<polygon class="st50" points="735.26,347.07 655.29,428.44 655.29,429.49 664.71,426.19 792,298.34 789.87,292.63 "/>
<linearGradient id="SVGID_46_" gradientUnits="userSpaceOnUse" x1="659.2599" y1="549.0554" x2="659.2599" y2="427.829">
	<stop  offset="0" style="stop-color:#87B44C"/>
	<stop  offset="0.71" style="stop-color:#71A642"/>
	<stop  offset="1" style="stop-color:#8DB249"/>
</linearGradient>
<polygon class="st51" points="664.71,426.19 664.58,541.68 653.81,556.44 655.16,547.88 655.29,429.49 "/>
<linearGradient id="SVGID_47_" gradientUnits="userSpaceOnUse" x1="757.122" y1="356.3246" x2="794.2191" y2="390.2332">
	<stop  offset="0" style="stop-color:#117652"/>
	<stop  offset="0.33" style="stop-color:#2C8048"/>
	<stop  offset="0.57" style="stop-color:#276B40"/>
	<stop  offset="1" style="stop-color:#05753C"/>
</linearGradient>
<polygon class="st52" points="760.6,329.87 792,298.34 791.86,413.03 790.04,419.87 760.6,449.38 "/>
<linearGradient id="SVGID_48_" gradientUnits="userSpaceOnUse" x1="677.3976" y1="529.4906" x2="789.3694" y2="419.2063">
	<stop  offset="0" style="stop-color:#5BA745"/>
	<stop  offset="1" style="stop-color:#88B24A"/>
</linearGradient>
<polygon class="st53" points="664.58,541.68 791.86,413.03 790.04,419.87 653.81,556.44 "/>
<radialGradient id="SVGID_49_" cx="640.1285" cy="461.8027" r="185.7935" gradientTransform="matrix(0.6494 -0.7604 0.7393 0.6314 -116.9936 656.9943)" gradientUnits="userSpaceOnUse">
	<stop  offset="0" style="stop-color:#FDBB48"/>
	<stop  offset="0.83" style="stop-color:#F99D1C"/>
	<stop  offset="1" style="stop-color:#FDBB48"/>
</radialGradient>
<polygon class="st54" points="417.97,501.57 496.86,580.68 624.21,580.79 653.81,556.44 655.13,548.08 655.29,426.37 653.7,425.12 
	653.33,425.23 577.8,349.99 571.18,348.75 "/>
<linearGradient id="SVGID_50_" gradientUnits="userSpaceOnUse" x1="516.2958" y1="568.9202" x2="631.1816" y2="568.9193">
	<stop  offset="0" style="stop-color:#AF4624"/>
	<stop  offset="1" style="stop-color:#F08122"/>
</linearGradient>
<polygon class="st55" points="624.21,580.79 496.86,580.68 524.89,557.59 652.89,557.19 "/>
<linearGradient id="SVGID_51_" gradientUnits="userSpaceOnUse" x1="432.9425" y1="528.3784" x2="453.4821" y2="528.3784">
	<stop  offset="0" style="stop-color:#A74223"/>
	<stop  offset="1" style="stop-color:#F58020"/>
</linearGradient>
<polygon class="st56" points="417.97,501.57 496.86,580.68 524.89,557.59 443.53,476.08 "/>
<linearGradient id="SVGID_52_" gradientUnits="userSpaceOnUse" x1="450.9713" y1="475.8354" x2="525.712" y2="548.4395">
	<stop  offset="0" style="stop-color:#F58220"/>
	<stop  offset="1" style="stop-color:#FDBA56"/>
</linearGradient>
<polygon class="st57" points="456.57,471.32 533.11,548.09 524.89,557.59 443.53,476.08 "/>
<linearGradient id="SVGID_53_" gradientUnits="userSpaceOnUse" x1="454.2517" y1="468.987" x2="574.2443" y2="350.3476">
	<stop  offset="0" style="stop-color:#F78E1E"/>
	<stop  offset="1" style="stop-color:#F58020"/>
</linearGradient>
<polygon class="st58" points="456.57,471.32 549.29,378.52 577.8,349.99 571.18,348.75 443.53,476.08 "/>
<linearGradient id="SVGID_54_" gradientUnits="userSpaceOnUse" x1="639.8275" y1="545.3002" x2="639.8286" y2="442.3824">
	<stop  offset="0" style="stop-color:#EFAA1F"/>
	<stop  offset="0.57" style="stop-color:#CFB52C"/>
	<stop  offset="1" style="stop-color:#E0AB26"/>
</linearGradient>
<polygon class="st59" points="653.33,425.23 624.81,453.73 624.36,548.08 655.13,548.08 655.29,426.37 653.7,425.12 "/>
<linearGradient id="SVGID_55_" gradientUnits="userSpaceOnUse" x1="645.3931" y1="558.0539" x2="625.4178" y2="568.4367">
	<stop  offset="0" style="stop-color:#AA4E24"/>
	<stop  offset="1" style="stop-color:#C96928"/>
</linearGradient>
<polygon class="st60" points="624.32,557.28 624.21,580.79 652.89,557.19 "/>
<polygon class="st61" points="624.36,548.08 624.32,557.28 652.89,557.19 653.81,556.44 655.13,548.08 "/>
<radialGradient id="SVGID_56_" cx="624.8191" cy="453.7301" r="64.992" gradientTransform="matrix(0.2601 -0.9656 0.9585 0.2582 27.4053 939.9111)" gradientUnits="userSpaceOnUse">
	<stop  offset="0" style="stop-color:#FEC66E"/>
	<stop  offset="1" style="stop-color:#FBAD1A"/>
</radialGradient>
<polygon class="st62" points="549.29,378.52 624.81,453.73 652.12,426.45 576.14,351.65 "/>
</svg>
