<?xml version="1.0" encoding="UTF-8" standalone="no"?>
<!-- Created with Inkscape (http://www.inkscape.org/) -->

<svg
   width="210mm"
   height="297mm"
   viewBox="0 0 210 297"
   version="1.1"
   id="svg5"
   inkscape:version="1.1.2 (b8e25be833, 2022-02-05)"
   sodipodi:docname="25.svg"
   xmlns:inkscape="http://www.inkscape.org/namespaces/inkscape"
   xmlns:sodipodi="http://sodipodi.sourceforge.net/DTD/sodipodi-0.dtd"
   xmlns="http://www.w3.org/2000/svg"
   xmlns:svg="http://www.w3.org/2000/svg">
  <sodipodi:namedview
     id="namedview7"
     pagecolor="#ffffff"
     bordercolor="#666666"
     borderopacity="1.0"
     inkscape:pageshadow="2"
     inkscape:pageopacity="0.0"
     inkscape:pagecheckerboard="0"
     inkscape:document-units="mm"
     showgrid="false"
     inkscape:zoom="5.1241863"
     inkscape:cx="253.79639"
     inkscape:cy="355.95895"
     inkscape:window-width="1920"
     inkscape:window-height="1177"
     inkscape:window-x="1912"
     inkscape:window-y="-8"
     inkscape:window-maximized="1"
     inkscape:current-layer="layer1" />
  <defs
     id="defs2" />
  <g
     inkscape:label="Layer 1"
     inkscape:groupmode="layer"
     id="layer1">
    <g
       aria-label="25"
       id="text1574"
       style="font-size:10.5833px;line-height:1.25;stroke-width:0.264583">
      <path
         d="m 57.275915,81.278127 q 0,-0.341064 -0.108521,-0.594277 -0.103352,-0.253214 -0.289387,-0.418578 -0.180867,-0.170532 -0.428913,-0.253214 -0.248046,-0.08268 -0.537433,-0.08268 -0.248046,0 -0.485757,0.06718 -0.237711,0.06718 -0.465086,0.186035 -0.222208,0.118855 -0.434081,0.284219 -0.206705,0.165364 -0.387572,0.366902 v -0.909503 q 0.356566,-0.346231 0.795815,-0.527098 0.444415,-0.186034 1.080034,-0.186034 0.454751,0 0.842323,0.134358 0.387572,0.129191 0.671791,0.382405 0.28422,0.253213 0.444416,0.625282 0.165364,0.37207 0.165364,0.852659 0,0.439248 -0.103352,0.795814 -0.09819,0.356567 -0.30489,0.671792 -0.201538,0.315225 -0.511595,0.604612 -0.310058,0.289387 -0.728636,0.58911 -0.52193,0.372069 -0.862993,0.635618 -0.335896,0.263549 -0.537434,0.496092 -0.196369,0.227375 -0.279051,0.459919 -0.07752,0.227375 -0.07752,0.527098 h 3.689686 v 0.759641 h -4.57335 v -0.366902 q 0,-0.475421 0.103353,-0.837155 0.103352,-0.361734 0.341063,-0.687295 0.237711,-0.32556 0.620115,-0.651121 0.387572,-0.32556 0.945676,-0.733803 0.403075,-0.289387 0.671791,-0.552936 0.273884,-0.263549 0.439249,-0.527098 0.165364,-0.263549 0.232543,-0.532265 0.07235,-0.273884 0.07235,-0.578774 z"
         style="font-family:'Segoe UI';-inkscape-font-specification:'Segoe UI, Normal'"
         id="path12466" />
      <path
         d="m 63.998997,84.482055 q 0,0.542601 -0.186035,0.981849 -0.186034,0.439249 -0.532265,0.754474 -0.341063,0.315225 -0.82682,0.485757 -0.485757,0.170531 -1.080034,0.170531 -1.033526,0 -1.534786,-0.310057 v -0.899167 q 0.754474,0.485757 1.545121,0.485757 0.403075,0 0.723468,-0.118856 0.32556,-0.118855 0.552936,-0.330728 0.227375,-0.211873 0.346231,-0.511595 0.124023,-0.299722 0.124023,-0.656288 0,-0.723468 -0.485757,-1.131711 -0.485757,-0.41341 -1.410762,-0.41341 -0.149861,0 -0.315226,0.0052 -0.165364,0.0052 -0.330728,0.0155 -0.165364,0.0052 -0.32556,0.0155 -0.155029,0.01034 -0.28422,0.02584 l 0.253214,-3.715524 h 3.426137 v 0.764809 H 60.9656 l -0.149861,2.175571 q 0.165364,-0.01034 0.351399,-0.0155 0.186034,-0.01034 0.330728,-0.01034 0.589109,0 1.054196,0.155029 0.465086,0.155029 0.785479,0.444416 0.32556,0.28422 0.490924,0.702797 0.170532,0.413411 0.170532,0.930173 z"
         style="font-family:'Segoe UI';-inkscape-font-specification:'Segoe UI, Normal'"
         id="path12463" />
    </g>
  </g>
</svg>
